<?xml version="1.0" encoding="UTF-8"?>
<svg width="20px" height="19px" viewBox="0 0 20 19" version="1.1" xmlns="http://www.w3.org/2000/svg" xmlns:xlink="http://www.w3.org/1999/xlink">
    <!-- Generator: Sketch 43.2 (39069) - http://www.bohemiancoding.com/sketch -->
    <title>Combined Shape</title>
    <desc>Created with Sketch.</desc>
    <defs></defs>
    <g id="Page-1" stroke="none" stroke-width="1" fill="none" fill-rule="evenodd">
        <g id="Desktop/-Search-details-view" transform="translate(-691.000000, -664.000000)" fill="#699999">
            <g id="Group-10" transform="translate(499.000000, 456.000000)">
                <g id="Group-13" transform="translate(192.000000, 208.000000)">
                    <g id="noun_446450_cc" transform="translate(0.500000, 0.000000)">
                        <g id="Group">
                            <g id="Group-4">
                                <g>
                                    <path d="M17.7924138,12.1179286 L18.7475862,11.1699643 L8.05103448,0.614107143 L7.09586207,1.55392857 L8.07103448,2.51342857 L0.236551724,10.19825 L9.01448276,18.8351071 L16.8172414,11.15775 L17.7924138,12.1179286 Z M2.18758621,10.19825 L9.03448276,3.46071429 L15.862069,10.1785714 L2.18758621,10.19825 Z M18.9006897,16.0889286 C19.1841379,16.3671429 19.357931,16.7505357 19.357931,17.1746429 C19.357931,18.0269286 18.6572414,18.7163571 17.7917241,18.7163571 C16.9262069,18.7170357 16.2248276,18.0269286 16.2268966,17.176 C16.2241379,16.7478214 16.4034483,16.3623929 16.6882759,16.0841786 L17.7924138,14.9971071 L18.9006897,16.0889286 Z" id="Combined-Shape"></path>
                                </g>
                            </g>
                        </g>
                    </g>
                </g>
            </g>
        </g>
    </g>
</svg>