<?xml version="1.0" encoding="UTF-8"?>
<svg width="21px" height="21px" viewBox="0 0 21 21" version="1.1" xmlns="http://www.w3.org/2000/svg" xmlns:xlink="http://www.w3.org/1999/xlink">
    <!-- Generator: Sketch 43.2 (39069) - http://www.bohemiancoding.com/sketch -->
    <title>Combined Shape</title>
    <desc>Created with Sketch.</desc>
    <defs></defs>
    <g id="Page-1" stroke="none" stroke-width="1" fill="none" fill-rule="evenodd">
        <g id="Desktop/-Search-details-view" transform="translate(-693.000000, -617.000000)" fill="#699999">
            <g id="Group-10" transform="translate(499.000000, 456.000000)">
                <g id="Group-14" transform="translate(194.000000, 161.000000)">
                    <g id="noun_57348_cc" transform="translate(0.500000, 0.000000)">
                        <g id="Group">
                            <path d="M17.1040582,3.63429741 L19.7668209,6.22302011 L19.7668209,18.0431034 C19.7668209,19.5788491 18.4855254,20.8238233 16.9060939,20.8238233 C15.3266623,20.8238233 14.0458427,19.5788491 14.0458427,18.0431034 L14.0453668,18.0431034 L14.0453668,12.6539986 C14.0453668,11.7106681 13.2585063,10.9456868 12.2881956,10.9456868 L11.6771712,10.9456868 L11.6771712,20.8240546 L0.0132187707,20.8240546 L0.0132187707,2.78765948 C0.0132187707,1.27227011 1.31450099,0.00693965517 2.87323199,0.00693965517 L8.81216127,0.00693965517 C10.3706543,0.00693965517 11.6774091,1.26741236 11.6774091,2.78280172 L11.6774091,9.87327874 L12.2884336,9.87327874 C13.8678652,9.87327874 15.1486847,11.1182529 15.1486847,12.6539986 L15.1486847,18.0431034 L15.1491606,18.0431034 C15.1491606,18.9864339 15.9360212,19.7514152 16.9063318,19.7514152 C17.8766424,19.7514152 18.663265,18.9864339 18.663265,18.0431034 L18.663265,10.163819 C18.3656048,10.3206552 18.0244019,10.4097141 17.6622604,10.4097141 C16.4999339,10.4097141 15.5579379,9.49391092 15.5579379,8.36413506 C15.5579379,7.44324282 16.1832386,6.66507615 17.043384,6.40830891 L15.6471646,5.05068103 C15.2450496,4.65928448 15.2445737,4.02523132 15.6471646,3.63429741 C16.0488037,3.24313218 16.7014673,3.24336351 17.1040582,3.63429741 Z M8.08811633,2.78765948 C8.61157964,2.78765948 9.03986781,3.20403879 9.03962987,3.71294684 L9.03962987,6.7143477 C9.03962987,7.22325575 8.61134171,7.63963506 8.08787839,7.63963506 L3.71862525,7.63963506 C3.19516193,7.63963506 2.76687376,7.22325575 2.76687376,6.7143477 L2.76687376,3.71294684 C2.76687376,3.20403879 3.19516193,2.78765948 3.71862525,2.78765948 L8.08811633,2.78765948 Z M10.249306,19.4310345 L10.249306,19.4310345 L10.249306,2.78303305 C10.249306,2.05783908 9.56761401,1.39510201 8.82167878,1.39510201 L8.81192333,1.39510201 L2.87323199,1.39510201 C2.12729676,1.39510201 1.440846,2.05298132 1.440846,2.77817529 L1.440846,2.78765948 L1.440846,19.4310345 L10.249306,19.4310345 Z M17.6622604,9.28456466 C18.1852479,9.28456466 18.6090152,8.87234914 18.6090152,8.36390374 C18.6090152,7.85545833 18.1852479,7.44324282 17.6622604,7.44324282 C17.139273,7.44324282 16.7155056,7.85545833 16.7155056,8.36390374 C16.7155056,8.87234914 17.139273,9.28456466 17.6622604,9.28456466 Z" id="Combined-Shape"></path>
                        </g>
                    </g>
                </g>
            </g>
        </g>
    </g>
</svg>
