<?xml version="1.0" encoding="UTF-8"?>
<svg width="26px" height="15px" viewBox="0 0 26 15" version="1.1" xmlns="http://www.w3.org/2000/svg" xmlns:xlink="http://www.w3.org/1999/xlink">
    <!-- Generator: Sketch 43.2 (39069) - http://www.bohemiancoding.com/sketch -->
    <title>Combined Shape</title>
    <desc>Created with Sketch.</desc>
    <defs></defs>
    <g id="Page-1" stroke="none" stroke-width="1" fill="none" fill-rule="evenodd">
        <g id="Desktop/-Search-details-view" transform="translate(-502.000000, -666.000000)" stroke-width="0.55" stroke="#669999" fill="#669999">
            <g id="Group-10" transform="translate(499.000000, 456.000000)">
                <g id="Group-5" transform="translate(4.000000, 210.000000)">
                    <g id="noun_420840_cc">
                        <g id="Group">
                            <g transform="translate(0.000000, 0.531500)" id="Group-3">
                                <g>
                                    <g>
                                        <g>
                                            <g>
                                                <path d="M1.2555804,0.301833333 C0.9371808,0.301833333 0.639950829,0.397309917 0.406808057,0.57364325 C0.1736652,0.749976583 0,1.02666667 0,1.3435 L0,12.5935 C0,12.9104167 0.1736652,13.1887342 0.406808057,13.3649842 C0.639950829,13.5413175 0.937180886,13.6351667 1.2555804,13.6351667 L22.7444194,13.6351667 C23.0628189,13.6351667 23.3600494,13.5413175 23.5931923,13.3649842 C23.8263351,13.1887342 24,12.9104167 24,12.5935 L24,1.3435 C24,1.02666667 23.8263351,0.749976583 23.5931923,0.57364325 C23.3600494,0.397309917 23.0628189,0.301833333 22.7444194,0.301833333 L1.2555804,0.301833333 Z M1.2555804,1.13516667 L22.7444194,1.13516667 C22.8839186,1.13516667 23.0018743,1.18177833 23.067522,1.23119533 C23.1331706,1.28119533 23.1428571,1.31458333 23.1428571,1.3435 L23.1428571,12.5935 C23.1428571,12.6226667 23.1331714,12.6576833 23.0675229,12.7074325 C23.0018734,12.7574325 22.8839186,12.8018333 22.7444194,12.8018333 L1.2555804,12.8018333 C1.11608177,12.8018333 0.998125629,12.7568492 0.932477657,12.7074325 C0.866829686,12.6578492 0.857142857,12.6229167 0.857142857,12.5935 L0.857142857,1.3435 C0.857142857,1.31433333 0.866829086,1.28094533 0.932477657,1.23119533 C0.998125371,1.18119533 1.11608177,1.13516667 1.2555804,1.13516667 Z M20.7108568,10.0480958 C20.2781949,10.0480958 19.9189608,10.397399 19.9189608,10.8179948 C19.9189608,11.2386676 20.2781949,11.5878938 20.7108568,11.5878938 C21.1435188,11.5878938 21.5027529,11.2386676 21.5027529,10.8179948 C21.5027529,10.397399 21.1435188,10.0480958 20.7108568,10.0480958 Z M3.28914317,10.0480958 C2.85648093,10.0480958 2.4972471,10.397399 2.4972471,10.8179948 C2.4972471,11.2386676 2.85648093,11.5878938 3.28914317,11.5878938 C3.72180541,11.5878938 4.08103925,11.2386676 4.08103925,10.8179948 C4.08103925,10.397399 3.72180541,10.0480958 3.28914317,10.0480958 Z M20.7108568,2.34910623 C20.2781949,2.34910623 19.9189608,2.69840939 19.9189608,3.11900519 C19.9189608,3.53967798 20.2781949,3.88890415 20.7108568,3.88890415 C21.1435188,3.88890415 21.5027529,3.53967798 21.5027529,3.11900519 C21.5027529,2.69840939 21.1435188,2.34910623 20.7108568,2.34910623 Z M3.28914317,2.34910623 C2.85648093,2.34910623 2.4972471,2.69840939 2.4972471,3.11900519 C2.4972471,3.53967798 2.85648093,3.88890415 3.28914317,3.88890415 C3.72180541,3.88890415 4.08103925,3.53967798 4.08103925,3.11900519 C4.08103925,2.69840939 3.72180541,2.34910623 3.28914317,2.34910623 Z" id="Combined-Shape"></path>
                                            </g>
                                        </g>
                                    </g>
                                </g>
                            </g>
                        </g>
                    </g>
                </g>
            </g>
        </g>
    </g>
</svg>